<svg id="Layer_1" data-name="Layer 1" xmlns="http://www.w3.org/2000/svg" viewBox="0 0 120.78 117.79"><defs><style>.cls-1,.cls-2{fill:#181616;}.cls-1{fill-rule:evenodd;}</style></defs><path class="cls-1" d="M61,.4A60.4,60.4,0,0,0,41.86,118.09c3,.56,4.13-1.31,4.13-2.91,0-1.44-.06-6.19-.08-11.24-16.8,3.65-20.35-7.12-20.35-7.12-2.75-7-6.7-8.84-6.7-8.84-5.48-3.75.41-3.67.41-3.67,6.06.42,9.26,6.22,9.26,6.22,5.38,9.23,14.12,6.57,17.57,5,.54-3.9,2.11-6.57,3.83-8.07C36.52,86,22.42,80.77,22.42,57.63a23.39,23.39,0,0,1,6.22-16.21c-.62-1.52-2.69-7.66.59-16,0,0,5.07-1.62,16.61,6.19a57.32,57.32,0,0,1,30.24,0c11.53-7.81,16.59-6.19,16.59-6.19,3.29,8.32,1.22,14.46.59,16a23.3,23.3,0,0,1,6.22,16.21c0,23.2-14.13,28.3-27.58,29.8C74.07,89.3,76,93,76,98.61c0,8.08-.07,14.58-.07,16.57,0,1.61,1.09,3.49,4.15,2.9A60.4,60.4,0,0,0,61,.4Z" transform="translate(-0.57 -0.4)"/><path class="cls-2" d="M23.44,87.1a.78.78,0,0,1-1,.19c-.44-.2-.68-.61-.54-.91s.6-.39,1-.19.69.61.54.91Zm-.75-.55" transform="translate(-0.57 -0.4)"/><path class="cls-2" d="M25.88,89.83c-.28.27-.85.14-1.23-.28a.92.92,0,0,1-.18-1.25c.3-.27.85-.14,1.24.28s.47,1,.17,1.25Zm-.57-.62" transform="translate(-0.57 -0.4)"/><path class="cls-2" d="M28.26,93.31c-.37.26-1,0-1.34-.52s-.38-1.18,0-1.44,1,0,1.35.51.37,1.19,0,1.45Zm0,0" transform="translate(-0.57 -0.4)"/><path class="cls-2" d="M31.53,96.67c-.33.36-1,.27-1.56-.23s-.67-1.18-.34-1.54,1.05-.27,1.57.23.68,1.18.33,1.54Zm0,0" transform="translate(-0.57 -0.4)"/><path class="cls-2" d="M36,98.62c-.15.47-.83.69-1.51.49s-1.13-.76-1-1.24.82-.7,1.51-.49,1.13.76,1,1.24Zm0,0" transform="translate(-0.57 -0.4)"/><path class="cls-2" d="M41,99c0,.5-.56.91-1.28.92s-1.31-.38-1.32-.88.57-.91,1.29-.92S41,98.49,41,99Zm0,0" transform="translate(-0.57 -0.4)"/><path class="cls-2" d="M45.57,98.2c.08.49-.42,1-1.13,1.12s-1.35-.17-1.44-.66.42-1,1.12-1.12,1.36.17,1.45.66Zm0,0" transform="translate(-0.57 -0.4)"/></svg>