<?xml version="1.0" standalone="no"?>
<!DOCTYPE svg PUBLIC "-//W3C//DTD SVG 20010904//EN"
 "http://www.w3.org/TR/2001/REC-SVG-20010904/DTD/svg10.dtd">
<svg version="1.0" xmlns="http://www.w3.org/2000/svg"
 width="318.000000pt" height="318.000000pt" viewBox="0 0 318.000000 318.000000"
 preserveAspectRatio="xMidYMid meet">
<metadata>
Created by potrace 1.11, written by Peter Selinger 2001-2013
</metadata>
<g transform="translate(0.000000,318.000000) scale(0.100000,-0.100000)"
fill="#000000" stroke="none">
<path d="M1408 3172 c-29 -3 -36 -24 -18 -52 10 -16 10 -16 98 -18 l62 -2 0
-174 0 -173 -89 -12 c-49 -7 -131 -23 -182 -35 -52 -13 -97 -21 -100 -20 -13
7 -80 187 -75 200 3 7 28 23 55 35 40 17 51 26 51 44 0 49 -20 48 -151 -5
-162 -66 -194 -83 -194 -105 0 -34 30 -41 85 -21 27 10 56 16 64 13 16 -6 89
-176 82 -193 -2 -6 -40 -33 -83 -59 -43 -26 -106 -69 -140 -96 -34 -27 -67
-50 -72 -51 -5 -2 -62 48 -125 111 l-115 114 54 60 c42 47 52 65 45 78 -23 41
-40 31 -180 -111 -140 -141 -151 -158 -111 -180 17 -9 21 -6 112 77 l26 23
114 -115 c63 -64 113 -120 112 -124 -1 -5 -29 -44 -61 -87 -32 -44 -75 -107
-96 -141 -20 -35 -42 -65 -47 -69 -10 -6 -184 60 -202 76 -4 3 1 26 12 51 27
59 27 96 0 104 -13 4 -26 2 -34 -6 -14 -16 -84 -179 -109 -257 -21 -61 -16
-82 17 -82 20 0 29 10 46 51 12 27 28 52 35 55 16 6 187 -61 197 -77 3 -6 -2
-43 -12 -83 -17 -63 -49 -241 -49 -273 0 -10 -42 -13 -175 -13 l-175 0 -1 63
c0 34 -4 71 -8 81 -8 21 -46 32 -56 16 -4 -6 -6 -95 -6 -197 1 -153 3 -190 16
-202 31 -31 51 17 54 127 l1 32 173 0 174 0 12 -82 c7 -46 23 -128 37 -182 13
-54 23 -100 21 -102 -4 -4 -198 -84 -203 -84 -2 0 -16 24 -30 53 -30 59 -38
67 -65 60 -28 -8 -24 -33 32 -175 55 -140 75 -170 108 -161 26 7 26 28 1 94
-12 28 -18 54 -15 58 10 9 199 79 206 76 3 -2 29 -42 57 -89 29 -47 75 -114
102 -150 l49 -64 -115 -113 c-63 -63 -116 -114 -119 -114 -2 0 -19 14 -37 31
-57 53 -86 68 -103 54 -8 -7 -15 -21 -15 -32 0 -22 218 -243 263 -267 25 -13
29 -13 41 5 17 22 12 33 -44 97 l-42 48 48 52 c27 29 79 81 116 116 l68 64 57
-45 c32 -25 99 -71 148 -103 50 -31 92 -59 94 -61 6 -5 -69 -193 -79 -199 -5
-3 -33 4 -63 15 -57 22 -81 19 -92 -8 -10 -26 31 -51 178 -109 73 -29 135 -53
139 -53 4 0 14 7 22 16 23 23 7 46 -53 74 -28 13 -51 29 -51 35 0 7 14 45 31
86 17 41 34 84 39 95 l9 22 88 -23 c49 -13 132 -29 184 -37 l94 -13 3 -173 c2
-133 0 -173 -10 -177 -7 -2 -42 -6 -78 -8 -65 -3 -65 -3 -68 -34 l-3 -31 180
-1 c189 0 223 4 227 33 3 23 -34 36 -107 36 l-59 0 0 179 0 179 68 6 c37 4
116 19 176 33 91 21 110 23 121 12 13 -13 85 -173 85 -188 0 -4 -27 -19 -59
-34 -50 -23 -59 -31 -56 -49 8 -37 18 -38 100 -9 215 75 270 110 233 148 -13
12 -22 12 -73 -6 -32 -11 -61 -19 -65 -16 -8 5 -43 75 -65 129 -26 66 -21 77
47 116 34 19 100 63 146 98 46 35 88 62 93 60 12 -4 229 -219 229 -227 0 -3
-23 -30 -50 -60 -28 -29 -50 -57 -50 -62 0 -10 29 -39 40 -39 12 0 256 243
269 268 9 16 7 24 -5 36 -8 9 -19 16 -23 16 -4 0 -33 -23 -65 -52 l-58 -51
-114 114 c-63 62 -114 116 -114 120 0 3 25 39 56 80 30 41 74 107 97 146 30
51 48 73 62 73 27 0 145 -46 173 -68 l23 -18 -21 -55 c-23 -58 -23 -58 -8 -77
12 -14 27 -15 46 -3 14 9 93 192 116 272 14 47 14 49 -5 60 -27 14 -51 -7 -74
-66 -9 -25 -19 -45 -21 -45 -11 0 -205 83 -208 89 -2 3 4 33 15 66 20 65 49
222 49 267 l0 28 180 0 180 0 0 -69 c0 -72 16 -106 44 -95 22 8 25 35 25 215
0 138 -3 171 -15 184 -19 18 -19 18 -37 1 -8 -9 -15 -39 -16 -77 -1 -35 -4
-66 -7 -71 -7 -10 -341 -11 -348 0 -2 4 -8 35 -11 67 -8 72 -30 182 -50 248
-14 46 -13 48 8 57 12 4 54 22 94 38 40 17 80 28 90 26 10 -3 27 -25 37 -50
22 -54 48 -71 71 -48 19 19 19 19 -47 184 -53 132 -74 165 -100 155 -27 -10
-28 -31 -7 -92 10 -31 16 -60 11 -65 -13 -13 -175 -78 -194 -78 -10 0 -18 5
-18 12 0 15 -91 158 -147 231 l-45 58 23 26 c55 59 201 198 209 198 4 0 23
-13 41 -30 18 -16 44 -38 58 -47 23 -16 27 -16 43 -1 16 14 16 18 2 46 -24 45
-239 257 -262 257 -11 0 -25 -6 -31 -14 -16 -19 -3 -43 50 -101 l38 -41 -116
-116 -115 -117 -70 53 c-38 29 -107 76 -153 103 l-84 50 32 89 c48 134 43 129
106 105 79 -32 97 -28 91 19 -2 24 -26 37 -161 90 -139 55 -164 59 -172 31 -7
-28 4 -40 62 -66 28 -13 51 -26 51 -28 0 -6 -81 -201 -85 -205 -1 -1 -45 8
-96 22 -52 13 -133 29 -181 36 l-88 12 0 174 0 174 28 1 c61 1 118 12 132 25
12 12 12 16 -1 29 -13 13 -48 16 -185 18 -93 1 -181 1 -196 -1z"/>
</g>
</svg>
