<svg id="Layer_1" data-name="Layer 1" xmlns="http://www.w3.org/2000/svg" viewBox="0 0 100 100"><defs><style>.cls-1{fill:#d6edd6;}.cls-2{fill:#6c6;}</style></defs><circle class="cls-1" cx="50" cy="50" r="50"/><path class="cls-2" d="M83.72,72.14l-8.29,0a1.28,1.28,0,0,1-.24-.08v-.65c0-2.93,0-5.86,0-8.79a10.84,10.84,0,0,0-2.27-7c-.06-.08-.1-.17-.26-.41,1,.24,1.8.42,2.61.66a19.11,19.11,0,0,1,5.15,2.37,7.26,7.26,0,0,1,3.29,3.94Z"/><path class="cls-2" d="M69.48,72.14H29.78V71.4c0-2.76.08-5.53,0-8.3a6.59,6.59,0,0,1,2.87-5.77A21.76,21.76,0,0,1,40,53.85a31.85,31.85,0,0,1,10.61-1.51A33.1,33.1,0,0,1,64.7,56a10.64,10.64,0,0,1,3.81,3.18,5,5,0,0,1,1,2.94v9.67C69.51,71.91,69.49,72,69.48,72.14Z"/><path class="cls-2" d="M49.67,26.76a9.93,9.93,0,1,1-10,9.88A9.88,9.88,0,0,1,49.67,26.76Z"/><path class="cls-2" d="M35.44,42.38a7.09,7.09,0,1,1-7-7.12A7.1,7.1,0,0,1,35.44,42.38Z"/><path class="cls-2" d="M63.86,42.29a7.09,7.09,0,1,1,6.94,7.17A7.09,7.09,0,0,1,63.86,42.29Z"/><path class="cls-2" d="M15.57,72.13c0-2.66.13-5.26,0-7.85a6,6,0,0,1,2.92-5.73,21,21,0,0,1,8.14-3.26c-.3.44-.54.79-.76,1.14a10.17,10.17,0,0,0-1.73,5.71v10Z"/></svg>